<?xml version="1.0" encoding="iso-8859-1"?>
<!-- Uploaded to: SVG Repo, www.svgrepo.com, Generator: SVG Repo Mixer Tools -->
<svg fill="green" height="800px" width="800px" version="1.1" id="Layer_1" xmlns="http://www.w3.org/2000/svg" xmlns:xlink="http://www.w3.org/1999/xlink"
	 viewBox="0 0 496 496" xml:space="preserve">
<g>
	<g>
		<path d="M198.144,61.424c-4.348-4.344-12.136-4.344-16.432,0c-2.172,2.164-3.416,5.144-3.416,8.204
			c0,3.076,1.244,6.056,3.416,8.22c2.164,2.164,5.152,3.408,8.212,3.408c3.064,0,6.048-1.244,8.22-3.408
			c2.168-2.164,3.408-5.144,3.408-8.22C201.552,66.568,200.312,63.588,198.144,61.424z"/>
	</g>
</g>
<g>
	<g>
		<path d="M74.144,61.424c-4.348-4.344-12.136-4.316-16.432,0c-2.172,2.116-3.416,5.144-3.416,8.204c0,3.076,1.244,6.056,3.416,8.22
			c2.164,2.164,5.152,3.408,8.212,3.408c3.064,0,6.048-1.244,8.22-3.408c2.168-2.164,3.408-5.144,3.408-8.22
			C77.552,66.568,76.312,63.588,74.144,61.424z"/>
	</g>
</g>
<g>
	<g>
		<path d="M496,89.004V50.252C496,22.476,473.448,0,445.676,0H50.42C22.648,0,0,22.476,0,50.252v38.752
			C0,116.78,22.648,139.5,50.42,139.5h185.952v38.752H50.42C22.648,178.248,0,200.728,0,228.504v38.752
			c0,27.776,22.648,50.496,50.42,50.496h185.952v38.752H50.42C22.648,356.5,0,378.976,0,406.752v38.752
			C0,473.28,22.648,496,50.42,496h395.252c27.772,0,50.324-22.72,50.324-50.496v-38.752c0-27.776-22.552-50.252-50.324-50.252
			H259.624v-38.752h186.052c27.772,0,50.324-22.72,50.324-50.496V228.5c0-27.776-22.552-50.252-50.324-50.252H259.624v-38.752
			h186.052v0.004C473.448,139.5,496,116.78,496,89.004z M213.128,73.624h-0.004c0,10.704-8.672,19.376-19.376,19.376H62
			c-10.704,0-19.376-8.672-19.376-19.376v-7.752c0-10.704,8.672-19.376,19.376-19.376h131.752c10.704,0,19.376,8.672,19.376,19.376
			V73.624z M213.128,251.876h-0.004c0,10.704-8.672,19.376-19.376,19.376H62c-10.704,0-19.376-8.672-19.376-19.376v-7.752
			c0-10.704,8.672-19.376,19.376-19.376h131.752c10.704,0,19.376,8.672,19.376,19.376V251.876z M213.128,430.124h-0.004
			c0,10.704-8.672,19.376-19.376,19.376H62c-10.704,0-19.376-8.672-19.376-19.376v-7.752c0-10.704,8.672-19.376,19.376-19.376
			h131.752c10.704,0,19.376,8.672,19.376,19.376V430.124z M426.3,402.88c12.82,0,23.248,10.428,23.248,23.248
			c0,12.82-10.428,23.248-23.248,23.248c-12.824,0-23.248-10.428-23.248-23.248C403.052,413.308,413.476,402.88,426.3,402.88z
			 M372.052,410.628c8.548,0,15.5,6.964,15.5,15.5c0,8.552-6.952,15.5-15.5,15.5c-8.552,0-15.5-6.948-15.5-15.5
			C356.552,417.592,363.5,410.628,372.052,410.628z M333.3,410.628c8.548,0,15.5,6.964,15.5,15.5c0,8.552-6.952,15.5-15.5,15.5
			c-8.552,0-15.5-6.948-15.5-15.5C317.8,417.592,324.752,410.628,333.3,410.628z M426.3,224.628
			c12.82,0,23.248,10.428,23.248,23.248s-10.428,23.248-23.248,23.248c-12.824,0-23.248-10.428-23.248-23.248
			S413.476,224.628,426.3,224.628z M372.052,232.38c8.548,0,15.5,6.964,15.5,15.5c0,8.552-6.952,15.5-15.5,15.5
			c-8.552,0-15.5-6.948-15.5-15.5C356.552,239.344,363.5,232.38,372.052,232.38z M333.3,232.38c8.548,0,15.5,6.964,15.5,15.5
			c0,8.552-6.952,15.5-15.5,15.5c-8.552,0-15.5-6.948-15.5-15.5C317.8,239.344,324.752,232.38,333.3,232.38z M333.3,85.128
			c-8.552,0-15.5-6.948-15.5-15.5c0-8.536,6.952-15.5,15.5-15.5c8.548,0,15.5,6.964,15.5,15.5
			C348.8,78.18,341.848,85.128,333.3,85.128z M372.052,85.128c-8.552,0-15.5-6.948-15.5-15.5c0-8.536,6.948-15.5,15.5-15.5
			c8.548,0,15.5,6.964,15.5,15.5C387.552,78.18,380.6,85.128,372.052,85.128z M426.3,92.876c-12.824,0-23.248-10.428-23.248-23.248
			S413.476,46.38,426.3,46.38c12.82,0,23.248,10.428,23.248,23.248S439.12,92.876,426.3,92.876z"/>
	</g>
</g>
<g>
	<g>
		<path d="M198.144,239.676c-4.348-4.348-12.136-4.348-16.432,0c-2.172,2.164-3.416,5.144-3.416,8.204
			c0,3.076,1.244,6.056,3.416,8.22c2.164,2.164,5.152,3.408,8.212,3.408c3.064,0,6.048-1.244,8.22-3.408
			c2.168-2.164,3.408-5.144,3.408-8.22C201.552,244.82,200.312,241.84,198.144,239.676z"/>
	</g>
</g>
<g>
	<g>
		<path d="M74.144,239.676c-4.348-4.348-12.136-4.316-16.432,0c-2.172,2.116-3.416,5.144-3.416,8.204
			c0,3.076,1.244,6.056,3.416,8.22c2.164,2.164,5.152,3.408,8.212,3.408c3.064,0,6.048-1.244,8.22-3.408
			c2.168-2.164,3.408-5.144,3.408-8.22C77.552,244.82,76.312,241.84,74.144,239.676z"/>
	</g>
</g>
<g>
	<g>
		<path d="M198.144,417.924c-4.348-4.344-12.136-4.344-16.432,0c-2.172,2.164-3.416,5.144-3.416,8.204
			c0,3.076,1.244,6.056,3.416,8.22c2.164,2.164,5.152,3.408,8.212,3.408c3.064,0,6.048-1.244,8.22-3.408
			c2.168-2.164,3.408-5.144,3.408-8.22C201.552,423.068,200.312,420.088,198.144,417.924z"/>
	</g>
</g>
<g>
	<g>
		<path d="M74.144,417.924c-4.348-4.344-12.136-4.316-16.432,0c-2.172,2.116-3.416,5.144-3.416,8.204
			c0,3.076,1.244,6.056,3.416,8.22c2.164,2.164,5.152,3.408,8.212,3.408c3.064,0,6.048-1.244,8.22-3.408
			c2.168-2.164,3.408-5.144,3.408-8.22C77.552,423.068,76.312,420.088,74.144,417.924z"/>
	</g>
</g>
</svg>